<?xml version="1.0" encoding="UTF-8" standalone="no"?>
<!DOCTYPE svg PUBLIC "-//W3C//DTD SVG 1.1//EN"
 "http://www.w3.org/Graphics/SVG/1.1/DTD/svg11.dtd">
<!-- Generated by graphviz version 9.0.0 (20230911.1827)
 -->
<!-- Pages: 1 -->
<svg width="582pt" height="404pt"
 viewBox="0.00 0.00 582.00 404.00" xmlns="http://www.w3.org/2000/svg" xmlns:xlink="http://www.w3.org/1999/xlink">
<g id="graph0" class="graph" transform="scale(1 1) rotate(0) translate(4 400)">
<polygon fill="white" stroke="none" points="-4,4 -4,-400 578,-400 578,4 -4,4"/>
<!-- jqt -->
<g id="node1" class="node">
<title>jqt</title>
<ellipse fill="none" stroke="black" cx="82" cy="-306" rx="27" ry="18"/>
<text text-anchor="middle" x="82" y="-300.95" font-family="Times,serif" font-size="14.00">jqt</text>
</g>
<!-- rhn -->
<g id="node2" class="node">
<title>rhn</title>
<ellipse fill="none" stroke="black" cx="82" cy="-234" rx="27" ry="18"/>
<text text-anchor="middle" x="82" y="-228.95" font-family="Times,serif" font-size="14.00">rhn</text>
</g>
<!-- jqt&#45;&gt;rhn -->
<g id="edge1" class="edge">
<title>jqt&#45;&gt;rhn</title>
<path fill="none" stroke="black" d="M82,-287.7C82,-280.41 82,-271.73 82,-263.54"/>
<polygon fill="black" stroke="black" points="85.5,-263.62 82,-253.62 78.5,-263.62 85.5,-263.62"/>
</g>
<!-- xhk -->
<g id="node3" class="node">
<title>xhk</title>
<ellipse fill="none" stroke="black" cx="27" cy="-90" rx="27" ry="18"/>
<text text-anchor="middle" x="27" y="-84.95" font-family="Times,serif" font-size="14.00">xhk</text>
</g>
<!-- jqt&#45;&gt;xhk -->
<g id="edge2" class="edge">
<title>jqt&#45;&gt;xhk</title>
<path fill="none" stroke="black" d="M68.81,-289.88C60.83,-279.83 51.21,-265.97 46,-252 29.51,-207.81 26.47,-152.48 26.33,-119.53"/>
<polygon fill="black" stroke="black" points="29.83,-119.6 26.39,-109.58 22.83,-119.56 29.83,-119.6"/>
</g>
<!-- nvd -->
<g id="node4" class="node">
<title>nvd</title>
<ellipse fill="none" stroke="black" cx="323" cy="-90" rx="27" ry="18"/>
<text text-anchor="middle" x="323" y="-84.95" font-family="Times,serif" font-size="14.00">nvd</text>
</g>
<!-- jqt&#45;&gt;nvd -->
<g id="edge3" class="edge">
<title>jqt&#45;&gt;nvd</title>
<path fill="none" stroke="black" d="M97.81,-290.96C138.92,-254.46 249.37,-156.38 298.67,-112.61"/>
<polygon fill="black" stroke="black" points="300.84,-115.35 306,-106.1 296.2,-110.12 300.84,-115.35"/>
</g>
<!-- rhn&#45;&gt;xhk -->
<g id="edge12" class="edge">
<title>rhn&#45;&gt;xhk</title>
<path fill="none" stroke="black" d="M75.47,-216.15C66.13,-192.03 48.83,-147.36 37.62,-118.43"/>
<polygon fill="black" stroke="black" points="40.94,-117.3 34.06,-109.24 34.41,-119.83 40.94,-117.3"/>
</g>
<!-- hfx -->
<g id="node9" class="node">
<title>hfx</title>
<ellipse fill="none" stroke="black" cx="137" cy="-18" rx="27" ry="18"/>
<text text-anchor="middle" x="137" y="-12.95" font-family="Times,serif" font-size="14.00">hfx</text>
</g>
<!-- rhn&#45;&gt;hfx -->
<g id="edge14" class="edge">
<title>rhn&#45;&gt;hfx</title>
<path fill="none" stroke="black" d="M85.29,-215.86C88.83,-197.87 94.78,-168.83 101,-144 109.43,-110.34 120.71,-72.05 128.38,-46.82"/>
<polygon fill="black" stroke="black" points="131.71,-47.92 131.29,-37.33 125.01,-45.87 131.71,-47.92"/>
</g>
<!-- bvb -->
<g id="node13" class="node">
<title>bvb</title>
<ellipse fill="none" stroke="black" cx="137" cy="-162" rx="27" ry="18"/>
<text text-anchor="middle" x="137" y="-156.95" font-family="Times,serif" font-size="14.00">bvb</text>
</g>
<!-- rhn&#45;&gt;bvb -->
<g id="edge13" class="edge">
<title>rhn&#45;&gt;bvb</title>
<path fill="none" stroke="black" d="M94.21,-217.46C101.11,-208.67 109.91,-197.48 117.73,-187.53"/>
<polygon fill="black" stroke="black" points="120.47,-189.71 123.89,-179.68 114.96,-185.38 120.47,-189.71"/>
</g>
<!-- xhk&#45;&gt;hfx -->
<g id="edge7" class="edge">
<title>xhk&#45;&gt;hfx</title>
<path fill="none" stroke="black" d="M46.16,-76.81C63.35,-65.87 88.82,-49.66 108.42,-37.19"/>
<polygon fill="black" stroke="black" points="110.22,-40.19 116.78,-31.87 106.47,-34.28 110.22,-40.19"/>
</g>
<!-- lhk -->
<g id="node12" class="node">
<title>lhk</title>
<ellipse fill="none" stroke="black" cx="369" cy="-18" rx="27" ry="18"/>
<text text-anchor="middle" x="369" y="-12.95" font-family="Times,serif" font-size="14.00">lhk</text>
</g>
<!-- nvd&#45;&gt;lhk -->
<g id="edge25" class="edge">
<title>nvd&#45;&gt;lhk</title>
<path fill="none" stroke="black" d="M333.44,-73.12C339.03,-64.61 346.04,-53.94 352.36,-44.32"/>
<polygon fill="black" stroke="black" points="355.21,-46.37 357.77,-36.09 349.36,-42.52 355.21,-46.37"/>
</g>
<!-- rsh -->
<g id="node5" class="node">
<title>rsh</title>
<ellipse fill="none" stroke="black" cx="458" cy="-306" rx="27" ry="18"/>
<text text-anchor="middle" x="458" y="-300.95" font-family="Times,serif" font-size="14.00">rsh</text>
</g>
<!-- frs -->
<g id="node6" class="node">
<title>frs</title>
<ellipse fill="none" stroke="black" cx="418" cy="-234" rx="27" ry="18"/>
<text text-anchor="middle" x="418" y="-228.95" font-family="Times,serif" font-size="14.00">frs</text>
</g>
<!-- rsh&#45;&gt;frs -->
<g id="edge4" class="edge">
<title>rsh&#45;&gt;frs</title>
<path fill="none" stroke="black" d="M448.72,-288.76C444.03,-280.55 438.21,-270.37 432.91,-261.09"/>
<polygon fill="black" stroke="black" points="435.98,-259.41 427.98,-252.46 429.9,-262.88 435.98,-259.41"/>
</g>
<!-- pzl -->
<g id="node7" class="node">
<title>pzl</title>
<ellipse fill="none" stroke="black" cx="490" cy="-234" rx="27" ry="18"/>
<text text-anchor="middle" x="490" y="-228.95" font-family="Times,serif" font-size="14.00">pzl</text>
</g>
<!-- rsh&#45;&gt;pzl -->
<g id="edge5" class="edge">
<title>rsh&#45;&gt;pzl</title>
<path fill="none" stroke="black" d="M465.58,-288.41C469.21,-280.48 473.64,-270.78 477.73,-261.84"/>
<polygon fill="black" stroke="black" points="480.87,-263.4 481.84,-252.85 474.5,-260.49 480.87,-263.4"/>
</g>
<!-- lsr -->
<g id="node8" class="node">
<title>lsr</title>
<ellipse fill="none" stroke="black" cx="547" cy="-162" rx="27" ry="18"/>
<text text-anchor="middle" x="547" y="-156.95" font-family="Times,serif" font-size="14.00">lsr</text>
</g>
<!-- rsh&#45;&gt;lsr -->
<g id="edge6" class="edge">
<title>rsh&#45;&gt;lsr</title>
<path fill="none" stroke="black" d="M478.66,-294.05C494.02,-284.85 514.28,-270.27 526,-252 537.6,-233.91 542.8,-210.07 545.13,-191.62"/>
<polygon fill="black" stroke="black" points="548.59,-192.19 546.13,-181.89 541.63,-191.48 548.59,-192.19"/>
</g>
<!-- frs&#45;&gt;lsr -->
<g id="edge33" class="edge">
<title>frs&#45;&gt;lsr</title>
<path fill="none" stroke="black" d="M438.44,-221.91C459.48,-210.49 492.51,-192.57 516.61,-179.49"/>
<polygon fill="black" stroke="black" points="518.2,-182.61 525.32,-174.76 514.87,-176.45 518.2,-182.61"/>
</g>
<!-- qnr -->
<g id="node11" class="node">
<title>qnr</title>
<ellipse fill="none" stroke="black" cx="361" cy="-162" rx="27" ry="18"/>
<text text-anchor="middle" x="361" y="-156.95" font-family="Times,serif" font-size="14.00">qnr</text>
</g>
<!-- frs&#45;&gt;qnr -->
<g id="edge31" class="edge">
<title>frs&#45;&gt;qnr</title>
<path fill="none" stroke="black" d="M405.63,-217.81C398.31,-208.82 388.87,-197.23 380.57,-187.03"/>
<polygon fill="black" stroke="black" points="383.33,-184.88 374.3,-179.33 377.9,-189.3 383.33,-184.88"/>
</g>
<!-- frs&#45;&gt;lhk -->
<g id="edge32" class="edge">
<title>frs&#45;&gt;lhk</title>
<path fill="none" stroke="black" d="M414.07,-215.85C405.65,-179.07 385.78,-92.29 375.47,-47.24"/>
<polygon fill="black" stroke="black" points="378.93,-46.67 373.28,-37.71 372.1,-48.24 378.93,-46.67"/>
</g>
<!-- pzl&#45;&gt;nvd -->
<g id="edge19" class="edge">
<title>pzl&#45;&gt;nvd</title>
<path fill="none" stroke="black" d="M476.09,-218.47C458.4,-200.28 426.58,-168.54 397,-144 382.37,-131.87 365.16,-119.44 351.02,-109.67"/>
<polygon fill="black" stroke="black" points="353.27,-106.97 343.04,-104.22 349.32,-112.75 353.27,-106.97"/>
</g>
<!-- pzl&#45;&gt;lsr -->
<g id="edge17" class="edge">
<title>pzl&#45;&gt;lsr</title>
<path fill="none" stroke="black" d="M502.37,-217.81C509.69,-208.82 519.13,-197.23 527.43,-187.03"/>
<polygon fill="black" stroke="black" points="530.1,-189.3 533.7,-179.33 524.67,-184.88 530.1,-189.3"/>
</g>
<!-- pzl&#45;&gt;hfx -->
<g id="edge18" class="edge">
<title>pzl&#45;&gt;hfx</title>
<path fill="none" stroke="black" d="M481.92,-216.33C464.63,-182.63 420.52,-106.69 359,-72 300.26,-38.88 221.51,-26.37 175.31,-21.71"/>
<polygon fill="black" stroke="black" points="175.81,-18.24 165.53,-20.8 175.16,-25.21 175.81,-18.24"/>
</g>
<!-- lsr&#45;&gt;lhk -->
<g id="edge26" class="edge">
<title>lsr&#45;&gt;lhk</title>
<path fill="none" stroke="black" d="M530.25,-147.64C498.98,-122.69 431.52,-68.88 394.54,-39.37"/>
<polygon fill="black" stroke="black" points="397.01,-36.87 387.01,-33.37 392.65,-42.34 397.01,-36.87"/>
</g>
<!-- cmg -->
<g id="node10" class="node">
<title>cmg</title>
<ellipse fill="none" stroke="black" cx="308" cy="-234" rx="27.3" ry="18"/>
<text text-anchor="middle" x="308" y="-228.95" font-family="Times,serif" font-size="14.00">cmg</text>
</g>
<!-- cmg&#45;&gt;nvd -->
<g id="edge9" class="edge">
<title>cmg&#45;&gt;nvd</title>
<path fill="none" stroke="black" d="M309.84,-215.59C312.37,-191.61 316.96,-148.14 320,-119.42"/>
<polygon fill="black" stroke="black" points="323.46,-119.93 321.03,-109.62 316.5,-119.19 323.46,-119.93"/>
</g>
<!-- cmg&#45;&gt;qnr -->
<g id="edge8" class="edge">
<title>cmg&#45;&gt;qnr</title>
<path fill="none" stroke="black" d="M319.76,-217.46C326.42,-208.67 334.89,-197.48 342.43,-187.53"/>
<polygon fill="black" stroke="black" points="345.11,-189.78 348.36,-179.7 339.53,-185.56 345.11,-189.78"/>
</g>
<!-- cmg&#45;&gt;lhk -->
<g id="edge10" class="edge">
<title>cmg&#45;&gt;lhk</title>
<path fill="none" stroke="black" d="M299.87,-216.76C285.87,-186.33 261.12,-119.53 287,-72 297.23,-53.21 317.31,-40.06 335.03,-31.56"/>
<polygon fill="black" stroke="black" points="336.01,-34.96 343.72,-27.7 333.16,-28.56 336.01,-34.96"/>
</g>
<!-- cmg&#45;&gt;bvb -->
<g id="edge11" class="edge">
<title>cmg&#45;&gt;bvb</title>
<path fill="none" stroke="black" d="M285.29,-223.7C255.78,-211.62 204.02,-190.44 170.13,-176.56"/>
<polygon fill="black" stroke="black" points="171.78,-173.46 161.2,-172.91 169.13,-179.93 171.78,-173.46"/>
</g>
<!-- qnr&#45;&gt;nvd -->
<g id="edge20" class="edge">
<title>qnr&#45;&gt;nvd</title>
<path fill="none" stroke="black" d="M352.19,-144.76C347.73,-136.55 342.2,-126.37 337.16,-117.09"/>
<polygon fill="black" stroke="black" points="340.33,-115.6 332.49,-108.48 334.18,-118.94 340.33,-115.6"/>
</g>
<!-- bvb&#45;&gt;xhk -->
<g id="edge15" class="edge">
<title>bvb&#45;&gt;xhk</title>
<path fill="none" stroke="black" d="M117.84,-148.81C100.65,-137.87 75.18,-121.66 55.58,-109.19"/>
<polygon fill="black" stroke="black" points="57.53,-106.28 47.22,-103.87 53.78,-112.19 57.53,-106.28"/>
</g>
<!-- bvb&#45;&gt;hfx -->
<g id="edge16" class="edge">
<title>bvb&#45;&gt;hfx</title>
<path fill="none" stroke="black" d="M137,-143.59C137,-119.61 137,-76.14 137,-47.42"/>
<polygon fill="black" stroke="black" points="140.5,-47.62 137,-37.62 133.5,-47.62 140.5,-47.62"/>
</g>
<!-- ntq -->
<g id="node14" class="node">
<title>ntq</title>
<ellipse fill="none" stroke="black" cx="110" cy="-378" rx="27" ry="18"/>
<text text-anchor="middle" x="110" y="-372.95" font-family="Times,serif" font-size="14.00">ntq</text>
</g>
<!-- ntq&#45;&gt;jqt -->
<g id="edge21" class="edge">
<title>ntq&#45;&gt;jqt</title>
<path fill="none" stroke="black" d="M103.36,-360.41C100.23,-352.57 96.4,-342.99 92.85,-334.13"/>
<polygon fill="black" stroke="black" points="96.11,-332.86 89.15,-324.88 89.61,-335.46 96.11,-332.86"/>
</g>
<!-- ntq&#45;&gt;xhk -->
<g id="edge24" class="edge">
<title>ntq&#45;&gt;xhk</title>
<path fill="none" stroke="black" d="M89.75,-365.51C75.26,-356.2 56.53,-341.74 46,-324 7.59,-259.28 14.86,-166.07 21.78,-119.6"/>
<polygon fill="black" stroke="black" points="25.22,-120.24 23.35,-109.81 18.31,-119.13 25.22,-120.24"/>
</g>
<!-- ntq&#45;&gt;hfx -->
<g id="edge22" class="edge">
<title>ntq&#45;&gt;hfx</title>
<path fill="none" stroke="black" d="M125.04,-362.83C148.71,-338.92 192,-287.95 192,-235 192,-235 192,-235 192,-161 192,-117.87 169.66,-72.03 153.46,-44.46"/>
<polygon fill="black" stroke="black" points="156.57,-42.86 148.39,-36.13 150.59,-46.49 156.57,-42.86"/>
</g>
<!-- ntq&#45;&gt;bvb -->
<g id="edge23" class="edge">
<title>ntq&#45;&gt;bvb</title>
<path fill="none" stroke="black" d="M112.73,-359.83C114.35,-349.47 116.39,-335.99 118,-324 124.22,-277.75 130.35,-223.87 133.9,-191.64"/>
<polygon fill="black" stroke="black" points="137.36,-192.24 134.97,-181.92 130.4,-191.48 137.36,-192.24"/>
</g>
<!-- rzs -->
<g id="node15" class="node">
<title>rzs</title>
<ellipse fill="none" stroke="black" cx="426" cy="-378" rx="27" ry="18"/>
<text text-anchor="middle" x="426" y="-372.95" font-family="Times,serif" font-size="14.00">rzs</text>
</g>
<!-- rzs&#45;&gt;rsh -->
<g id="edge30" class="edge">
<title>rzs&#45;&gt;rsh</title>
<path fill="none" stroke="black" d="M433.58,-360.41C437.21,-352.48 441.64,-342.78 445.73,-333.84"/>
<polygon fill="black" stroke="black" points="448.87,-335.4 449.84,-324.85 442.5,-332.49 448.87,-335.4"/>
</g>
<!-- rzs&#45;&gt;lsr -->
<g id="edge29" class="edge">
<title>rzs&#45;&gt;lsr</title>
<path fill="none" stroke="black" d="M445.7,-365.11C475.33,-345.82 529.76,-304.51 547,-252 553.38,-232.56 553.16,-209.41 551.46,-191.6"/>
<polygon fill="black" stroke="black" points="554.95,-191.25 550.29,-181.73 547.99,-192.08 554.95,-191.25"/>
</g>
<!-- rzs&#45;&gt;cmg -->
<g id="edge28" class="edge">
<title>rzs&#45;&gt;cmg</title>
<path fill="none" stroke="black" d="M404.71,-366.47C387.79,-357.22 364.47,-342.37 349,-324 333.85,-306 323.1,-281.48 316.42,-262.73"/>
<polygon fill="black" stroke="black" points="319.77,-261.71 313.27,-253.35 313.14,-263.94 319.77,-261.71"/>
</g>
<!-- rzs&#45;&gt;qnr -->
<g id="edge27" class="edge">
<title>rzs&#45;&gt;qnr</title>
<path fill="none" stroke="black" d="M419.44,-360.2C410.29,-336.38 393.52,-291.3 382,-252 376.12,-231.95 370.74,-208.99 366.89,-191.41"/>
<polygon fill="black" stroke="black" points="370.33,-190.73 364.81,-181.68 363.48,-192.2 370.33,-190.73"/>
</g>
</g>
</svg>
